<?xml version="1.0" encoding="UTF-8" standalone="no"?><svg xmlns="http://www.w3.org/2000/svg" xmlns:xlink="http://www.w3.org/1999/xlink" fill="#000000" height="47.8" preserveAspectRatio="xMidYMid meet" version="1" viewBox="10.2 8.0 42.4 47.8" width="42.4" zoomAndPan="magnify"><g fill="#000000" fill-rule="evenodd" id="change1_1"><path d="m51.77 42.54c-6.65-3.44-7.83-12.91-1.77-17.64a1.68 1.68 0 0 0 .09-2.55 11.7 11.7 0 0 0 -7.82-3.35c-4.35 0-6.18 2.07-9.2 2.07s-5.47-2.07-9.23-2.07-7.62 2.24-10.11 6.07c-3.51 5.4-2.91 15.54 2.77 24.19 2 3.09 4.74 6.57 8.29 6.6 3.15 0 4.05-2 8.33-2s5.08 2 8.24 2c3.55 0 6.41-3.88 8.44-7a30.19 30.19 0 0 0 2.54-4.74 1.25 1.25 0 0 0 -.57-1.58z" fill="inherit"/><path d="m33.59 19.1a10.16 10.16 0 0 0 5.41-3.54 11.37 11.37 0 0 0 2.35-5.56 1.71 1.71 0 0 0 -2.25-1.79 11.8 11.8 0 0 0 -5.1 3.49 10.89 10.89 0 0 0 -2.48 5.56 1.71 1.71 0 0 0 2.07 1.84z" fill="inherit"/></g></svg>